{"title":"SAN ANDREAS (2015) 720p BDrip x264 Hi-En AAC 5.1 Subs -DDR","uid":15584989,"size":1473636923,"categoryP":"video","categoryS":"hd___movies","magnet":"?xt=urn:btih:41bc2f645e141abcc83ee2a389bb7e4e01764608&amp;dn=SAN+ANDREAS+%282015%29+720p+BDrip+x264+Hi-En+AAC+5.1+Subs+-DDR&amp;tr=udp%3A%2F%2Ftracker.leechers-paradise.org%3A6969&amp;tr=udp%3A%2F%2Fzer0day.ch%3A1337&amp;tr=udp%3A%2F%2Fopen.demonii.com%3A1337&amp;tr=udp%3A%2F%2Ftracker.coppersurfer.tk%3A6969&amp;tr=udp%3A%2F%2Fexodus.desync.com%3A6969","seeders":26,"leechers":20,"uploader":"SaM","files":3,"time":1471454419,"description":"720 Blu-ray x264\r\n\r\nEnglish AAC 5.1\r\n\r\nHindi AAC 5.1\r\n\r\n\r\n\r\nEnglish Subtitle \r\n \nhttp://extraimago.com/image/wcLI \nhttp://extraimago.com/image/wcLl \nhttp://extraimago.com/image/wcLi \nhttp://extraimago.com/image/wcLm \nhttp://extraimago.com/image/wcLR \nhttp://extraimago.com/image/wcLQ \nhttp://extraimago.com/image/wcLL \nhttp://extraimago.com/image/wcLy \nhttp://extraimago.com/image/wcLq \nhttp://extraimago.com/image/wcLS \nhttp://extraimago.com/image/wcLO \nhttp://extraimago.com/image/wcLE\r\n\r\nSpecs:\r\nSource: BD50 Blu-ray @ HDClub\r\n\r\nFormat : Matroska\r\nFile size : 1.36 GiB\r\nDuration : 1h 54mn\r\nOverall bit rate : 1 702 Kbps\r\n\r\nVideo\r\nFormat : AVC\r\nFormat/Info : Advanced Video Codec\r\nFormat profile :   \r\nFormat settings, CABAC : Yes\r\nFormat settings, ReFrames : 12 frames\r\nCodec ID : V_MPEG4/ISO/AVC\r\nDuration : 1h 54mn\r\nBit rate : 1 313 Kbps\r\nWidth : 1 280 pixels\r\nHeight : 534 pixels\r\nDisplay aspect ratio : 2.40:1\r\nFrame rate mode : Constant\r\nFrame rate : 23.976 (24000/1001) fps\r\nColor space : YUV\r\nChroma subsampling : 4:2:0\r\nBit depth : 8 bits\r\nScan type : Progressive\r\nBits/(Pixel*Frame) : 0.080\r\nStream size : 1.05 GiB (77%)\r\n\r\nAudio #1\r\nFormat : AAC\r\nFormat/Info : Advanced Audio Codec\r\nFormat profile : LC\r\nCodec ID : A_AAC\r\nDuration : 1h 54mn\r\nBit rate : 192 Kbps\r\nChannel(s) : 6 channels\r\nChannel positions : Front: L C R, Side: L R, LFE\r\nSampling rate : 48.0 KHz\r\nFrame rate : 46.875 fps (1024 spf)\r\nCompression mode : Lossy\r\nDelay relative to video : 9ms\r\nStream size : 157 MiB (11%)\r\nLanguage : Hindi\r\nDefault : Yes\r\nForced : No\r\n\r\nAudio #2\r\nID : 3\r\nFormat : AAC\r\nFormat/Info : Advanced Audio Codec\r\nFormat profile : LC\r\nCodec ID : A_AAC\r\nDuration : 1h 54mn\r\nBit rate : 192 Kbps\r\nChannel(s) : 6 channels\r\nChannel positions : Front: L C R, Side: L R, LFE\r\nSampling rate : 48.0 KHz\r\nFrame rate : 46.875 fps (1024 spf)\r\nCompression mode : Lossy\r\nDelay relative to video : 9ms\r\nStream size : 157 MiB (11%)\r\nLanguage : English\r\nDefault : No\r\nForced : No\r\n\r\nText\r\nID : 4\r\nFormat : VobSub\r\nMuxing mode : zlib\r\nCodec ID : S_VOBSUB\r\nCodec ID/Info : Picture based subtitle format used on DVDs\r\nDuration : 1h 52mn\r\nBit rate : 3 324 bps\r\nCount of elements : 1487\r\nStream size : 2.68 MiB (0%)\r\nLanguage : English\r\nDefault : Yes\r\nForced : No\r\nSAMPLE Included\r\n\r\nA DDR Exclusive Encode","torrent":{"xt":"urn:btih:41bc2f645e141abcc83ee2a389bb7e4e01764608","amp;dn":"SAN+ANDREAS+%282015%29+720p+BDrip+x264+Hi-En+AAC+5.1+Subs+-DDR","amp;tr":["udp%3A%2F%2Ftracker.leechers-paradise.org%3A6969","udp%3A%2F%2Fzer0day.ch%3A1337","udp%3A%2F%2Fopen.demonii.com%3A1337","udp%3A%2F%2Ftracker.coppersurfer.tk%3A6969","udp%3A%2F%2Fexodus.desync.com%3A6969"],"infoHash":"41bc2f645e141abcc83ee2a389bb7e4e01764608","infoHashBuffer":{"type":"Buffer","data":[65,188,47,100,94,20,26,188,200,62,226,163,137,187,126,78,1,118,70,8]},"announce":[],"urlList":[]}}